<svg width="180" height="250" viewBox="0 0 180 250" fill="none" xmlns="http://www.w3.org/2000/svg">
<path d="M117.12 20.537C117.12 25.3828 114.336 29.9687 109.435 33.4242C104.539 36.8758 97.6704 39.0739 89.9895 39.0739C82.3085 39.0739 75.4397 36.8758 70.5438 33.4242C65.6425 29.9687 62.8594 25.3828 62.8594 20.537C62.8594 15.6911 65.6425 11.1052 70.5438 7.64974C75.4397 4.19808 82.3085 2 89.9895 2C97.6704 2 104.539 4.19808 109.435 7.64974C114.336 11.1052 117.12 15.6911 117.12 20.537Z" stroke="#444444" stroke-width="4"/>
<path d="M150.911 131.309C148.09 114.376 143.942 96.9462 131.203 82.2306L127.691 78.1735V83.5396C127.691 87.4639 127.681 92.882 127.669 99.0058C127.668 99.9219 127.666 100.854 127.664 101.799L126.355 177.929L126.355 177.946V177.964V178.082V178.2V178.318V178.437V178.555V178.673V178.792V178.91V179.028V179.146V179.265V179.383V179.501V179.62V179.738V179.856V179.974V180.093V180.211V180.329V180.447V180.566V180.684V180.802V180.921V181.039V181.157V181.275V181.394V181.512V181.63V181.749V181.867V181.985V182.103V182.222V182.34V182.458V182.577V182.695V182.813V182.931V183.05V183.168V183.286V183.405V183.523V183.641V183.759V183.878V183.996V184.114V184.232V184.351V184.469V184.587V184.706V184.824V184.942V185.061V185.179V185.297V185.415V185.534V185.652V185.77V185.889V186.007V186.125V186.243V186.362V186.48V186.598V186.717V186.835V186.953V187.071V187.19V187.308V187.426V187.545V187.663V187.781V187.899V188.018V188.136V188.254V188.373V188.491V188.609V188.727V188.846V188.964V189.082V189.201V189.319V189.437V189.555V189.674V189.792V189.91V190.029V190.147V190.265V190.384V190.502V190.62V190.738V190.857V190.975V191.093V191.212V191.33V191.448V191.566V191.685V191.803V191.921V192.04V192.158V192.276V192.395V192.513V192.631V192.749V192.868V192.986V193.104V193.223V193.341V193.459V193.578V193.696V193.814V193.932V194.051V194.169V194.287V194.406V194.524V194.642V194.761V194.879V194.997V195.115V195.234V195.352V195.47V195.589V195.707V195.825V195.944V196.062V196.18V196.298V196.417V196.535V196.653V196.772V196.89V197.008V197.127V197.245V197.363V197.481V197.6V197.718V197.836V197.955V198.073V198.191V198.31V198.428V198.546V198.664V198.783V198.901V199.019V199.138V199.256V199.374V199.493V199.611V199.729V199.847V199.966V200.084V200.202V200.321V200.439V200.557V200.676V200.794V200.912V201.031V201.149V201.267V201.385V201.504V201.622V201.74V201.859V201.977V202.095V202.214V202.332V202.45V202.568V202.687V202.805V202.923V203.042V203.16V203.278V203.397V203.515V203.633V203.752V203.87V203.988V204.106V204.225V204.343V204.461V204.58V204.698V204.816V204.935V205.053V205.171V205.29V205.408V205.526V205.644V205.763V205.881V205.999V206.118V206.236V206.354V206.473V206.591V206.709V206.828V206.946V207.064V207.182V207.301V207.419V207.537V207.656V207.774V207.892V208.011V208.129V208.247V208.366V208.484V208.602V208.72V208.839V208.957V209.075V209.194V209.312V209.43V209.549V209.667V209.785V209.904V210.022V210.14V210.258V210.377V210.495V210.613V210.732V210.85V210.968V211.087V211.205V211.323V211.442V211.56V211.678V211.797V211.915V212.033V212.151V212.27V212.388V212.506V212.625V212.743V212.861V212.98V213.098V213.216V213.335V213.453V213.571V213.689V213.808V213.926V214.044V214.163V214.281V214.399V214.518V214.636V214.754V214.873V214.991V215.109V215.228V215.346V215.464V215.582V215.701V215.819V215.937V216.056V216.174V216.292V216.411V216.529V216.647V216.766V216.884V217.002V217.121V217.239V217.357V217.475V217.594V217.712V217.83V217.949V218.067V218.185V218.304V218.422V218.54V218.659V218.777V218.895V219.013V219.132V219.25V219.368V219.487V219.605V219.723V219.842V219.96V220.078V220.197V220.315V220.433V220.552V220.67V220.788V220.906V221.025V221.143V221.261V221.38V221.498V221.616V221.735V221.853V221.971V222.09V222.208V222.326V222.445V222.563V222.681V222.799V222.918V223.036V223.154V223.273V223.391V223.509V223.628V223.746V223.864V223.983V224.101V224.219V224.337V224.456V224.574V224.692V224.811V224.929V225.047V225.166V225.284V225.402V225.521V225.639V225.757V225.876V225.994V226.112V226.23V226.349V226.467V226.585V226.704V226.822V226.94V227.059V227.177V227.295V227.414V227.532V227.65V227.768V227.887V228.005V228.123V228.242V228.36V228.478V228.597V228.715V228.833V228.952V229.07V229.188V229.306V229.425V229.543V229.661V229.78V229.898V230.016V230.135V230.253V230.371V230.49V230.608V230.726V230.844V230.963V231.081V231.199V231.318V231.436V231.554V231.673V231.791V231.909V232.028V232.146V232.264V232.382V232.501V232.619V232.737V232.856V232.974V233.092V233.211V233.329V233.447V233.566V233.684V233.802V233.92V234.039V234.157V234.275V234.394V234.512V234.63V234.749V234.867V234.985V235.104V235.222V235.34V235.458V235.577V235.695V235.813V235.932V236.05V236.168V236.287V236.405V236.523V236.641V236.76V236.878V236.996V237.115V237.233V237.351V237.47V237.588V237.706V237.825V237.943V238.061V238.179V238.298V238.416V238.534C126.355 241.182 124.946 243.241 122.487 244.731C119.978 246.252 116.497 247.077 112.896 247.077C109.295 247.077 105.814 246.252 103.305 244.731C100.846 243.241 99.437 241.182 99.437 238.534V238.416V238.297V238.177V238.057V237.936V237.814V237.692V237.57V237.446V237.323V237.198V237.073V236.948V236.822V236.695V236.568V236.44V236.312V236.183V236.054V235.924V235.794V235.663V235.531V235.399V235.266V235.133V234.999V234.865V234.731V234.595V234.46V234.323V234.186V234.049V233.911V233.773V233.634V233.495V233.355V233.214V233.074V232.932V232.79V232.648V232.505V232.362V232.218V232.074V231.929V231.784V231.638V231.492V231.345V231.198V231.051V230.903V230.754V230.605V230.456V230.306V230.156V230.005V229.854V229.702V229.55V229.397V229.244V229.091V228.937V228.783V228.628V228.473V228.317V228.161V228.005V227.848V227.691V227.533V227.375V227.217V227.058V226.898V226.739V226.579V226.418V226.257V226.096V225.934V225.772V225.61V225.447V225.284V225.12V224.956V224.792V224.627V224.462V224.297V224.131V223.965V223.799V223.632V223.465V223.297V223.129V222.961V222.792V222.623V222.454V222.284V222.114V221.944V221.774V221.603V221.431V221.26V221.088V220.916V220.743V220.57V220.397V220.223V220.05V219.876V219.701V219.526V219.351V219.176V219V218.825V218.648V218.472V218.295V218.118V217.941V217.763V217.585V217.407V217.229V217.05V216.871V216.692V216.512V216.333V216.153V215.972V215.792V215.611V215.43V215.249V215.067V214.886V214.704V214.521V214.339V214.156V213.973V213.79V213.607V213.423V213.24V213.056V212.871V212.687V212.502V212.317V212.132V211.947V211.762V211.576V211.39V211.204V211.018V210.831V210.645V210.458V210.271V210.084V209.896V209.709V209.521V209.333V209.145V208.957V208.768V208.58V208.391V208.202V208.013V207.824V207.635V207.445V207.256V207.066V206.876V206.686V206.496V206.306V206.115V205.925V205.734V205.543V205.352V205.161V204.97V204.779V204.587V204.396V204.204V204.012V203.82V203.628V203.436V203.244V203.052V202.86V202.667V202.475V202.282V202.089V201.897V201.704V201.511V201.318V201.125V200.932V200.738V200.545V200.352V200.158V199.965V199.772V199.578V199.384V199.191V198.997V198.803V198.609V198.416V198.222V198.028V197.834V197.64V197.446V197.252V197.058V196.864V196.67V196.476V196.282V196.087V195.893V195.699V195.505V195.311V195.117V194.923V194.728V194.534V194.34V194.146V193.952V193.758V193.564V193.37V193.176V192.982V192.788V192.594V192.4V192.206V192.012V191.819V191.625V191.431V191.237V191.044V190.85V190.657V190.463V190.27V190.077V189.883V189.69V189.497V189.304V189.111V188.918V188.725V188.532V188.34V188.147V187.954V187.762V187.57V187.377V187.185V186.993V186.801V186.609V186.418V186.226V186.034V185.843V185.652V185.461V185.269V185.078V184.888V184.697V184.506V184.316V184.126V183.935V183.745V183.555V183.366V183.176V182.987V182.797V182.608V182.419V182.23V182.041V181.853V181.664V181.476V181.288V181.1V180.912V180.725V180.538V180.35V180.163V179.977V179.79V179.603V179.417V179.231V179.045V178.859V178.674V178.489V178.304V178.119V177.934V177.75V177.565V177.381V177.197V177.014V176.83V176.647V176.464V176.282V176.099V175.917V175.735V175.553V175.372V175.19V175.009V174.829V174.648V174.468V174.288V174.108V173.929V173.749V173.57V173.392V173.213V173.035V172.857V172.68V172.502V172.325V172.148V171.972V171.796V171.62V171.444V171.269V171.094V170.919V170.744V170.57V170.396V170.223V170.05V169.877V169.704V169.532V169.36V169.188V169.017V168.846V168.675V168.505V168.335V168.165V167.996V167.827V167.659V167.49V167.322V167.155V166.988V166.821V166.654V166.488V166.322V166.157V165.992V165.827V165.663V165.499V165.335V165.172V165.009V164.846V164.684V164.523V164.361V164.201V164.04V163.88V163.72V163.561V163.402V163.243V163.085V162.928V162.77V162.614V162.457V162.301V162.145V161.99V161.836V161.681V161.527V161.374V161.221V161.068V160.916V160.764V160.613V160.462V160.312V160.162V160.012V159.863V159.715V159.567V159.419V159.272V159.125V158.979V158.833V158.688V158.543V158.399V158.255V158.112V157.969V157.827V157.685V157.543V157.402V157.262V157.122V156.983V156.844V156.705V156.567V156.43V156.293V156.157V156.021V155.886V155.751V155.617V155.483V155.35V155.217V155.085V154.953V154.822V154.692V154.562V154.433V154.304V154.175V154.048V153.92V153.794V153.668V153.542V153.417V153.293V153.169V153.046V152.923V152.801V152.679V152.558V152.438V152.318V152.199V152.08V150.08H97.437H82.2971H80.2971V152.08V238.258C80.2971 240.646 78.8838 243.033 76.1461 244.909C73.4182 246.779 69.5404 248 65.1633 248C56.2082 248 50.96 243.12 50.96 238.258V177.971V177.968L51.1727 101.979L51.1727 101.978L51.2258 86.1656L51.2447 80.5574L47.6814 84.8881C35.7949 99.3347 31.8234 116.245 29.076 132.68L29.0759 132.681C28.6329 135.336 26.7997 137.485 23.964 139.029C21.1196 140.577 17.448 141.399 13.8487 141.409C10.2273 141.418 6.93495 140.608 4.75905 139.166C2.69916 137.8 1.6662 135.929 2.09698 133.338C6.67223 105.954 13.2643 78.3747 41.4185 60.2634C63.3313 49.0529 84.6998 47.8423 100.628 49.4487C108.602 50.2528 115.197 51.7617 119.789 53.0661C122.085 53.718 123.877 54.3181 125.088 54.7521C125.694 54.9691 126.154 55.1445 126.459 55.2639C126.611 55.3237 126.725 55.3694 126.798 55.3994C126.835 55.4143 126.861 55.4254 126.878 55.4322L126.895 55.4394L126.897 55.4401L126.898 55.4405L126.898 55.4406L127.002 55.4846L127.108 55.516L127.109 55.5163L127.109 55.5163L127.111 55.5169L127.123 55.5206C127.138 55.525 127.162 55.5327 127.197 55.5438C127.267 55.5661 127.377 55.6019 127.525 55.6525C127.821 55.7538 128.268 55.9143 128.848 56.1433C130.006 56.6014 131.691 57.3332 133.748 58.4139C137.863 60.5756 143.462 64.1293 149.321 69.6744C161.012 80.738 173.843 99.8266 177.892 131.897L177.897 131.936L177.903 131.975C178.334 134.565 177.301 136.437 175.242 137.802C173.066 139.244 169.774 140.054 166.152 140.044C162.553 140.034 158.88 139.211 156.033 137.661C153.196 136.117 151.359 133.966 150.911 131.309ZM150.911 131.309L148.938 131.637M150.911 131.309C150.911 131.307 150.911 131.306 150.91 131.305L148.938 131.637M148.938 131.637C146.284 115.709 142.499 99.7102 131.69 85.9619L179.876 131.647C182.195 145.596 151.258 145.427 148.938 131.637Z" stroke="#444444" stroke-width="4"/>
</svg>
